# xmcd
#
# Track frame offsets:
#	150
#	30475
#	65057
#	90937
#	118290
#	142240
#
# Disc length: 2219 seconds
#
# Revision: 0
# Processed by: cddbd v1.4PL0 Copyright (c) Steve Scherf et al.
# Submitted via: EasyCDDAExtractor 4.6.9.1
#
DISCID=5308a906
DTITLE=Urban Cookie Collective - The Key, The Secret
DYEAR=1900
DGENRE=
TTITLE0=The Key, The Secret(Kamoflage Club Mix)
TTITLE1=The Key, The Secret(Kamoflage Dub)
TTITLE2=The Key, The Secret(Hungarian Deli Mix)
TTITLE3=The Key, The Secret(Glamorously Developed Mix)
TTITLE4=The Key, The Secret(Regressive Mix)
TTITLE5=The Key, The SecretShute The Flute Mix)
EXTD=
EXTT0=
EXTT1=
EXTT2=
EXTT3=
EXTT4=
EXTT5=
PLAYORDER=
